<svg xmlns="http://www.w3.org/2000/svg" width="1284" height="636" viewBox="0 0 1284 636" xml:space="preserve"><style>:root{--bg:#0d1117;--fg:#e6edf3;--cur:#e6edf3;--c0:#484f58;--c1:#ff7b72;--c2:#3fb950;--c3:#d29922;--c4:#58a6ff;--c5:#bc8cff;--c6:#39c5cf;--c7:#b1bac4;--c8:#6e7681;--c9:#ffa198;--c10:#56d364;--c11:#e3b341;--c12:#79c0ff;--c13:#d2a8ff;--c14:#56d4dd;--c15:#f0f6fc;}text{font-family:"Cascadia Code","JetBrains Mono","Fira Code","SF Mono",Menlo,Consolas,"DejaVu Sans Mono",monospace;font-size:14px;white-space:pre;fill:var(--fg)}.cur{fill:var(--cur);opacity:.65}.b{font-weight:700}.i{font-style:italic}.u{text-decoration:underline}.d{opacity:.6}.f2{fill:var(--c2)}.f3{fill:var(--c3)}.f6{fill:var(--c6)}.f8{fill:var(--c8)}</style><rect width="1284" height="636" fill="var(--bg)"/><rect x="20.4" y="131" width="378" height="17" fill="#444444"/><rect x="398.4" y="131" width="67.2" height="17" fill="#d7af5f"/><rect x="465.6" y="131" width="58.8" height="17" fill="#444444"/><rect x="885.6" y="131" width="67.2" height="17" fill="#d7af5f"/><rect x="280.8" y="148" width="67.2" height="17" fill="#d7af5f"/><rect x="171.6" y="165" width="67.2" height="17" fill="#d7af5f"/><rect x="297.6" y="182" width="67.2" height="17" fill="#d7af5f"/><text x="12" y="25.4" textLength="92.4" class="b">agent-share</text><text x="121.2" y="25.4">›</text><text x="146.4" y="25.4" textLength="25.2" class="b">Fix</text><text x="180" y="25.4" textLength="58.8" class="b">invoice</text><text x="247.2" y="25.4" textLength="67.2" class="b">currency</text><text x="322.8" y="25.4" textLength="25.2" class="b">bug</text><text x="12" y="42.4" textLength="50.4">Claude</text><text x="70.8" y="42.4" textLength="33.6">Code</text><text x="112.8" y="42.4">·</text><text x="129.6" y="42.4" textLength="58.8">billing</text><text x="196.8" y="42.4">·</text><text x="213.6" y="42.4" textLength="168">fix/invoice-currency</text><text x="390" y="42.4">·</text><text x="406.8" y="42.4" textLength="67.2">opus-5-5</text><text x="12" y="59.4" textLength="16.8">8s</text><text x="45.6" y="59.4">·</text><text x="70.8" y="59.4" textLength="33.6">est.</text><text x="112.8" y="59.4" textLength="50.4">$0.035</text><text x="180" y="59.4">·</text><text x="205.2" y="59.4" textLength="42">16.5k</text><text x="255.6" y="59.4" textLength="50.4">tokens</text><text x="322.8" y="59.4">·</text><text x="348" y="59.4">2</text><text x="364.8" y="59.4" textLength="42">turns</text><text x="423.6" y="59.4">·</text><text x="448.8" y="59.4" textLength="50.4">files:</text><text x="507.6" y="59.4">0</text><text x="524.4" y="59.4" textLength="33.6">read</text><text x="566.4" y="59.4">·</text><text x="583.2" y="59.4">1</text><text x="600" y="59.4" textLength="50.4">edited</text><text x="658.8" y="59.4">·</text><text x="675.6" y="59.4">0</text><text x="692.4" y="59.4" textLength="58.8">written</text><text x="12" y="76.4" textLength="42" class="f6">tools</text><text x="62.4" y="76.4" class="f6">2</text><text x="87.6" y="76.4" textLength="33.6">Bash</text><text x="129.6" y="76.4">×</text><text x="138" y="76.4">1</text><text x="163.2" y="76.4" class="f8">·</text><text x="188.4" y="76.4" textLength="33.6">Edit</text><text x="230.4" y="76.4">×</text><text x="238.8" y="76.4">1</text><text x="12" y="93.4" class="f2">✓</text><text x="28.8" y="93.4" textLength="42" class="f2">brief</text><text x="79.2" y="93.4" textLength="42" class="f2">share</text><text x="129.6" y="93.4" textLength="16.8" class="f2">is</text><text x="154.8" y="93.4" textLength="42" class="f2">clean</text><text x="205.2" y="93.4" textLength="33.6" class="f2">(3.1</text><text x="247.2" y="93.4" textLength="25.2" class="f2">KB)</text><text x="12" y="110.4" class="f6">/</text><text x="28.8" y="110.4" textLength="67.2">currency</text><text x="121.2" y="110.4">6</text><text x="138" y="110.4" textLength="67.2">messages</text><text x="12" y="127.4" class="f6">╭</text><text x="20.4" y="127.4" class="f6">─</text><text x="37.2" y="127.4" textLength="84" class="b">everything</text><text x="129.6" y="127.4" class="b">·</text><text x="146.4" y="127.4" class="b">7</text><text x="163.2" y="127.4" textLength="16.8" class="b">of</text><text x="188.4" y="127.4" class="b">7</text><text x="205.2" y="127.4" class="f6">─</text><text x="213.6" y="127.4" class="f6">─</text><text x="222" y="127.4" class="f6">─</text><text x="230.4" y="127.4" class="f6">─</text><text x="238.8" y="127.4" class="f6">─</text><text x="247.2" y="127.4" class="f6">─</text><text x="255.6" y="127.4" class="f6">─</text><text x="264" y="127.4" class="f6">─</text><text x="272.4" y="127.4" class="f6">─</text><text x="280.8" y="127.4" class="f6">─</text><text x="289.2" y="127.4" class="f6">─</text><text x="297.6" y="127.4" class="f6">─</text><text x="306" y="127.4" class="f6">─</text><text x="314.4" y="127.4" class="f6">─</text><text x="322.8" y="127.4" class="f6">─</text><text x="331.2" y="127.4" class="f6">─</text><text x="339.6" y="127.4" class="f6">─</text><text x="348" y="127.4" class="f6">─</text><text x="356.4" y="127.4" class="f6">─</text><text x="364.8" y="127.4" class="f6">─</text><text x="373.2" y="127.4" class="f6">─</text><text x="381.6" y="127.4" class="f6">─</text><text x="390" y="127.4" class="f6">─</text><text x="398.4" y="127.4" class="f6">─</text><text x="406.8" y="127.4" class="f6">─</text><text x="415.2" y="127.4" class="f6">─</text><text x="423.6" y="127.4" class="f6">─</text><text x="432" y="127.4" class="f6">─</text><text x="440.4" y="127.4" class="f6">─</text><text x="448.8" y="127.4" class="f6">─</text><text x="457.2" y="127.4" class="f6">─</text><text x="465.6" y="127.4" class="f6">─</text><text x="474" y="127.4" class="f6">─</text><text x="482.4" y="127.4" class="f6">─</text><text x="490.8" y="127.4" class="f6">─</text><text x="499.2" y="127.4" class="f6">─</text><text x="507.6" y="127.4" class="f6">─</text><text x="516" y="127.4" class="f6">─</text><text x="524.4" y="127.4" class="f6">╮</text><text x="541.2" y="127.4" class="f8">╭</text><text x="549.6" y="127.4" class="f8">─</text><text x="566.4" y="127.4" textLength="50.4" class="f6">prompt</text><text x="633.6" y="127.4" textLength="33.6">turn</text><text x="675.6" y="127.4">1</text><text x="692.4" y="127.4" class="f8">─</text><text x="700.8" y="127.4" class="f8">─</text><text x="709.2" y="127.4" class="f8">─</text><text x="717.6" y="127.4" class="f8">─</text><text x="726" y="127.4" class="f8">─</text><text x="734.4" y="127.4" class="f8">─</text><text x="742.8" y="127.4" class="f8">─</text><text x="751.2" y="127.4" class="f8">─</text><text x="759.6" y="127.4" class="f8">─</text><text x="768" y="127.4" class="f8">─</text><text x="776.4" y="127.4" class="f8">─</text><text x="784.8" y="127.4" class="f8">─</text><text x="793.2" y="127.4" class="f8">─</text><text x="801.6" y="127.4" class="f8">─</text><text x="810" y="127.4" class="f8">─</text><text x="818.4" y="127.4" class="f8">─</text><text x="826.8" y="127.4" class="f8">─</text><text x="835.2" y="127.4" class="f8">─</text><text x="843.6" y="127.4" class="f8">─</text><text x="852" y="127.4" class="f8">─</text><text x="860.4" y="127.4" class="f8">─</text><text x="868.8" y="127.4" class="f8">─</text><text x="877.2" y="127.4" class="f8">─</text><text x="885.6" y="127.4" class="f8">─</text><text x="894" y="127.4" class="f8">─</text><text x="902.4" y="127.4" class="f8">─</text><text x="910.8" y="127.4" class="f8">─</text><text x="919.2" y="127.4" class="f8">─</text><text x="927.6" y="127.4" class="f8">─</text><text x="936" y="127.4" class="f8">─</text><text x="944.4" y="127.4" class="f8">─</text><text x="952.8" y="127.4" class="f8">─</text><text x="961.2" y="127.4" class="f8">─</text><text x="969.6" y="127.4" class="f8">─</text><text x="978" y="127.4" class="f8">─</text><text x="986.4" y="127.4" class="f8">─</text><text x="994.8" y="127.4" class="f8">─</text><text x="1003.2" y="127.4" class="f8">─</text><text x="1011.6" y="127.4" class="f8">─</text><text x="1020" y="127.4" class="f8">─</text><text x="1028.4" y="127.4" class="f8">─</text><text x="1036.8" y="127.4" class="f8">─</text><text x="1045.2" y="127.4" class="f8">─</text><text x="1053.6" y="127.4" class="f8">─</text><text x="1062" y="127.4" class="f8">─</text><text x="1070.4" y="127.4" class="f8">─</text><text x="1078.8" y="127.4" class="f8">─</text><text x="1087.2" y="127.4" class="f8">─</text><text x="1095.6" y="127.4" class="f8">─</text><text x="1104" y="127.4" class="f8">─</text><text x="1112.4" y="127.4" class="f8">─</text><text x="1120.8" y="127.4" class="f8">─</text><text x="1129.2" y="127.4" class="f8">─</text><text x="1137.6" y="127.4" class="f8">─</text><text x="1146" y="127.4" class="f8">─</text><text x="1154.4" y="127.4" class="f8">─</text><text x="1162.8" y="127.4" class="f8">─</text><text x="1171.2" y="127.4" class="f8">─</text><text x="1179.6" y="127.4" class="f8">─</text><text x="1188" y="127.4" class="f8">─</text><text x="1196.4" y="127.4" class="f8">─</text><text x="1204.8" y="127.4" class="f8">─</text><text x="1213.2" y="127.4" class="f8">─</text><text x="1221.6" y="127.4" class="f8">─</text><text x="1230" y="127.4" class="f8">─</text><text x="1238.4" y="127.4" class="f8">─</text><text x="1246.8" y="127.4" class="f8">─</text><text x="1255.2" y="127.4" class="f8">─</text><text x="1263.6" y="127.4" class="f8">╮</text><text x="12" y="144.4" class="f6">│</text><text x="20.4" y="144.4" class="f6">▌</text><text x="28.8" y="144.4" class="f6">❯</text><text x="37.2" y="144.4" textLength="361.2"> #1 POST /v1/invoices returns 500 when the </text><text x="398.4" y="144.4" textLength="67.2" fill="#000000">currency</text><text x="465.6" y="144.4" textLength="25.2"> fi</text><text x="490.8" y="144.4">…</text><text x="499.2" y="144.4"> </text><text x="507.6" y="144.4">×</text><text x="516" y="144.4">1</text><text x="524.4" y="144.4" class="f6">│</text><text x="541.2" y="144.4" class="f8">│</text><text x="558" y="144.4" textLength="33.6">POST</text><text x="600" y="144.4" textLength="100.8">/v1/invoices</text><text x="709.2" y="144.4" textLength="58.8">returns</text><text x="776.4" y="144.4" textLength="25.2">500</text><text x="810" y="144.4" textLength="33.6">when</text><text x="852" y="144.4" textLength="25.2">the</text><text x="885.6" y="144.4" textLength="67.2" fill="#000000">currency</text><text x="961.2" y="144.4" textLength="42">field</text><text x="1011.6" y="144.4" textLength="16.8">is</text><text x="1036.8" y="144.4" textLength="67.2">missing.</text><text x="1112.4" y="144.4" textLength="25.2">Can</text><text x="1146" y="144.4" textLength="25.2">you</text><text x="1179.6" y="144.4" textLength="33.6">find</text><text x="1221.6" y="144.4" textLength="25.2">out</text><text x="1263.6" y="144.4" class="f8">│</text><text x="12" y="161.4" class="f6">│</text><text x="28.8" y="161.4" class="f2">◆</text><text x="45.6" y="161.4" textLength="25.2">Let</text><text x="79.2" y="161.4" textLength="16.8">me</text><text x="104.4" y="161.4" textLength="50.4">search</text><text x="163.2" y="161.4" textLength="25.2">for</text><text x="196.8" y="161.4" textLength="42">where</text><text x="247.2" y="161.4" textLength="25.2">the</text><text x="280.8" y="161.4" textLength="67.2" fill="#000000">currency</text><text x="356.4" y="161.4" textLength="16.8">is</text><text x="381.6" y="161.4" textLength="42">read.</text><text x="507.6" y="161.4">×</text><text x="516" y="161.4">1</text><text x="524.4" y="161.4" class="f6">│</text><text x="541.2" y="161.4" class="f8">│</text><text x="558" y="161.4" textLength="33.6">why?</text><text x="1263.6" y="161.4" class="f8">│</text><text x="12" y="178.4" class="f6">│</text><text x="28.8" y="178.4" class="f3">⚙</text><text x="45.6" y="178.4" textLength="33.6">Bash</text><text x="96" y="178.4" textLength="33.6">grep</text><text x="138" y="178.4" textLength="25.2">-rn</text><text x="171.6" y="178.4" textLength="67.2" fill="#000000">currency</text><text x="247.2" y="178.4" textLength="100.8">src/invoices</text><text x="507.6" y="178.4">×</text><text x="516" y="178.4">5</text><text x="524.4" y="178.4" class="f6">│</text><text x="541.2" y="178.4" class="f8">│</text><text x="1263.6" y="178.4" class="f8">│</text><text x="12" y="195.4" class="f6">│</text><text x="28.8" y="195.4" class="f2">◆</text><text x="45.6" y="195.4" textLength="42">Found</text><text x="96" y="195.4" textLength="25.2">it.</text><text x="129.6" y="195.4" textLength="25.2">The</text><text x="163.2" y="195.4" textLength="58.8">handler</text><text x="230.4" y="195.4" textLength="50.4">passes</text><text x="289.2" y="195.4">`</text><text x="297.6" y="195.4" textLength="67.2" fill="#000000">currency</text><text x="364.8" y="195.4">`</text><text x="381.6" y="195.4" textLength="67.2">straight</text><text x="457.2" y="195.4" textLength="16.8">to</text><text x="482.4" y="195.4">`</text><text x="490.8" y="195.4">…</text><text x="507.6" y="195.4">×</text><text x="516" y="195.4">2</text><text x="524.4" y="195.4" class="f6">│</text><text x="541.2" y="195.4" class="f8">│</text><text x="1263.6" y="195.4" class="f8">│</text><text x="12" y="212.4" class="f6">│</text><text x="28.8" y="212.4" class="f3">⚙</text><text x="45.6" y="212.4" textLength="33.6">Edit</text><text x="96" y="212.4" textLength="193.2">src/invoices/handler.ts</text><text x="507.6" y="212.4">×</text><text x="516" y="212.4">2</text><text x="524.4" y="212.4" class="f6">│</text><text x="541.2" y="212.4" class="f8">│</text><text x="1263.6" y="212.4" class="f8">│</text><text x="12" y="229.4" class="f6">│</text><text x="28.8" y="229.4" class="f6">❯</text><text x="45.6" y="229.4" textLength="16.8">#2</text><text x="70.8" y="229.4" textLength="25.2">now</text><text x="104.4" y="229.4" textLength="25.2">add</text><text x="138" y="229.4">a</text><text x="154.8" y="229.4" textLength="33.6">test</text><text x="196.8" y="229.4" textLength="25.2">for</text><text x="230.4" y="229.4" textLength="25.2">the</text><text x="264" y="229.4" textLength="25.2">USD</text><text x="297.6" y="229.4" textLength="67.2">fallback</text><text x="524.4" y="229.4" class="f6">│</text><text x="541.2" y="229.4" class="f8">│</text><text x="1263.6" y="229.4" class="f8">│</text><text x="12" y="246.4" class="f6">│</text><text x="28.8" y="246.4" class="f2">◆</text><text x="45.6" y="246.4" textLength="42">Added</text><text x="96" y="246.4" textLength="201.6">`tests/invoices.test.ts`</text><text x="306" y="246.4" textLength="67.2">covering</text><text x="381.6" y="246.4" textLength="25.2">the</text><text x="415.2" y="246.4" textLength="75.6">missing-c</text><text x="490.8" y="246.4">…</text><text x="507.6" y="246.4">×</text><text x="516" y="246.4">1</text><text x="524.4" y="246.4" class="f6">│</text><text x="541.2" y="246.4" class="f8">│</text><text x="1263.6" y="246.4" class="f8">│</text><text x="12" y="263.4" class="f6">│</text><text x="524.4" y="263.4" class="f6">│</text><text x="541.2" y="263.4" class="f8">│</text><text x="1263.6" y="263.4" class="f8">│</text><text x="12" y="280.4" class="f6">│</text><text x="524.4" y="280.4" class="f6">│</text><text x="541.2" y="280.4" class="f8">│</text><text x="1263.6" y="280.4" class="f8">│</text><text x="12" y="297.4" class="f6">│</text><text x="524.4" y="297.4" class="f6">│</text><text x="541.2" y="297.4" class="f8">│</text><text x="1263.6" y="297.4" class="f8">│</text><text x="12" y="314.4" class="f6">│</text><text x="524.4" y="314.4" class="f6">│</text><text x="541.2" y="314.4" class="f8">│</text><text x="1263.6" y="314.4" class="f8">│</text><text x="12" y="331.4" class="f6">│</text><text x="524.4" y="331.4" class="f6">│</text><text x="541.2" y="331.4" class="f8">│</text><text x="1263.6" y="331.4" class="f8">│</text><text x="12" y="348.4" class="f6">│</text><text x="524.4" y="348.4" class="f6">│</text><text x="541.2" y="348.4" class="f8">│</text><text x="1263.6" y="348.4" class="f8">│</text><text x="12" y="365.4" class="f6">│</text><text x="524.4" y="365.4" class="f6">│</text><text x="541.2" y="365.4" class="f8">│</text><text x="1263.6" y="365.4" class="f8">│</text><text x="12" y="382.4" class="f6">│</text><text x="524.4" y="382.4" class="f6">│</text><text x="541.2" y="382.4" class="f8">│</text><text x="1263.6" y="382.4" class="f8">│</text><text x="12" y="399.4" class="f6">│</text><text x="524.4" y="399.4" class="f6">│</text><text x="541.2" y="399.4" class="f8">│</text><text x="1263.6" y="399.4" class="f8">│</text><text x="12" y="416.4" class="f6">│</text><text x="524.4" y="416.4" class="f6">│</text><text x="541.2" y="416.4" class="f8">│</text><text x="1263.6" y="416.4" class="f8">│</text><text x="12" y="433.4" class="f6">│</text><text x="524.4" y="433.4" class="f6">│</text><text x="541.2" y="433.4" class="f8">│</text><text x="1263.6" y="433.4" class="f8">│</text><text x="12" y="450.4" class="f6">│</text><text x="524.4" y="450.4" class="f6">│</text><text x="541.2" y="450.4" class="f8">│</text><text x="1263.6" y="450.4" class="f8">│</text><text x="12" y="467.4" class="f6">│</text><text x="524.4" y="467.4" class="f6">│</text><text x="541.2" y="467.4" class="f8">│</text><text x="1263.6" y="467.4" class="f8">│</text><text x="12" y="484.4" class="f6">│</text><text x="524.4" y="484.4" class="f6">│</text><text x="541.2" y="484.4" class="f8">│</text><text x="1263.6" y="484.4" class="f8">│</text><text x="12" y="501.4" class="f6">│</text><text x="524.4" y="501.4" class="f6">│</text><text x="541.2" y="501.4" class="f8">│</text><text x="1263.6" y="501.4" class="f8">│</text><text x="12" y="518.4" class="f6">│</text><text x="524.4" y="518.4" class="f6">│</text><text x="541.2" y="518.4" class="f8">│</text><text x="1263.6" y="518.4" class="f8">│</text><text x="12" y="535.4" class="f6">│</text><text x="524.4" y="535.4" class="f6">│</text><text x="541.2" y="535.4" class="f8">│</text><text x="1263.6" y="535.4" class="f8">│</text><text x="12" y="552.4" class="f6">│</text><text x="524.4" y="552.4" class="f6">│</text><text x="541.2" y="552.4" class="f8">│</text><text x="1263.6" y="552.4" class="f8">│</text><text x="12" y="569.4" class="f6">│</text><text x="524.4" y="569.4" class="f6">│</text><text x="541.2" y="569.4" class="f8">│</text><text x="1263.6" y="569.4" class="f8">│</text><text x="12" y="586.4" class="f6">│</text><text x="524.4" y="586.4" class="f6">│</text><text x="541.2" y="586.4" class="f8">│</text><text x="1263.6" y="586.4" class="f8">│</text><text x="12" y="603.4" class="f6">╰</text><text x="20.4" y="603.4" class="f6">─</text><text x="28.8" y="603.4" class="f6">─</text><text x="37.2" y="603.4" class="f6">─</text><text x="45.6" y="603.4" class="f6">─</text><text x="54" y="603.4" class="f6">─</text><text x="62.4" y="603.4" class="f6">─</text><text x="70.8" y="603.4" class="f6">─</text><text x="79.2" y="603.4" class="f6">─</text><text x="87.6" y="603.4" class="f6">─</text><text x="96" y="603.4" class="f6">─</text><text x="104.4" y="603.4" class="f6">─</text><text x="112.8" y="603.4" class="f6">─</text><text x="121.2" y="603.4" class="f6">─</text><text x="129.6" y="603.4" class="f6">─</text><text x="138" y="603.4" class="f6">─</text><text x="146.4" y="603.4" class="f6">─</text><text x="154.8" y="603.4" class="f6">─</text><text x="163.2" y="603.4" class="f6">─</text><text x="171.6" y="603.4" class="f6">─</text><text x="180" y="603.4" class="f6">─</text><text x="188.4" y="603.4" class="f6">─</text><text x="196.8" y="603.4" class="f6">─</text><text x="205.2" y="603.4" class="f6">─</text><text x="213.6" y="603.4" class="f6">─</text><text x="222" y="603.4" class="f6">─</text><text x="230.4" y="603.4" class="f6">─</text><text x="238.8" y="603.4" class="f6">─</text><text x="247.2" y="603.4" class="f6">─</text><text x="255.6" y="603.4" class="f6">─</text><text x="264" y="603.4" class="f6">─</text><text x="272.4" y="603.4" class="f6">─</text><text x="280.8" y="603.4" class="f6">─</text><text x="289.2" y="603.4" class="f6">─</text><text x="297.6" y="603.4" class="f6">─</text><text x="306" y="603.4" class="f6">─</text><text x="314.4" y="603.4" class="f6">─</text><text x="322.8" y="603.4" class="f6">─</text><text x="331.2" y="603.4" class="f6">─</text><text x="339.6" y="603.4" class="f6">─</text><text x="348" y="603.4" class="f6">─</text><text x="356.4" y="603.4" class="f6">─</text><text x="364.8" y="603.4" class="f6">─</text><text x="373.2" y="603.4" class="f6">─</text><text x="381.6" y="603.4" class="f6">─</text><text x="390" y="603.4" class="f6">─</text><text x="398.4" y="603.4" class="f6">─</text><text x="406.8" y="603.4" class="f6">─</text><text x="415.2" y="603.4" class="f6">─</text><text x="423.6" y="603.4" class="f6">─</text><text x="432" y="603.4" class="f6">─</text><text x="440.4" y="603.4" class="f6">─</text><text x="448.8" y="603.4" class="f6">─</text><text x="457.2" y="603.4" class="f6">─</text><text x="465.6" y="603.4" class="f6">─</text><text x="482.4" y="603.4" textLength="25.2">1/7</text><text x="516" y="603.4" class="f6">─</text><text x="524.4" y="603.4" class="f6">╯</text><text x="541.2" y="603.4" class="f8">╰</text><text x="549.6" y="603.4" class="f8">─</text><text x="558" y="603.4" class="f8">─</text><text x="566.4" y="603.4" class="f8">─</text><text x="574.8" y="603.4" class="f8">─</text><text x="583.2" y="603.4" class="f8">─</text><text x="591.6" y="603.4" class="f8">─</text><text x="600" y="603.4" class="f8">─</text><text x="608.4" y="603.4" class="f8">─</text><text x="616.8" y="603.4" class="f8">─</text><text x="625.2" y="603.4" class="f8">─</text><text x="633.6" y="603.4" class="f8">─</text><text x="642" y="603.4" class="f8">─</text><text x="650.4" y="603.4" class="f8">─</text><text x="658.8" y="603.4" class="f8">─</text><text x="667.2" y="603.4" class="f8">─</text><text x="675.6" y="603.4" class="f8">─</text><text x="684" y="603.4" class="f8">─</text><text x="692.4" y="603.4" class="f8">─</text><text x="700.8" y="603.4" class="f8">─</text><text x="709.2" y="603.4" class="f8">─</text><text x="717.6" y="603.4" class="f8">─</text><text x="726" y="603.4" class="f8">─</text><text x="734.4" y="603.4" class="f8">─</text><text x="742.8" y="603.4" class="f8">─</text><text x="751.2" y="603.4" class="f8">─</text><text x="759.6" y="603.4" class="f8">─</text><text x="768" y="603.4" class="f8">─</text><text x="776.4" y="603.4" class="f8">─</text><text x="784.8" y="603.4" class="f8">─</text><text x="793.2" y="603.4" class="f8">─</text><text x="801.6" y="603.4" class="f8">─</text><text x="810" y="603.4" class="f8">─</text><text x="818.4" y="603.4" class="f8">─</text><text x="826.8" y="603.4" class="f8">─</text><text x="835.2" y="603.4" class="f8">─</text><text x="843.6" y="603.4" class="f8">─</text><text x="852" y="603.4" class="f8">─</text><text x="860.4" y="603.4" class="f8">─</text><text x="868.8" y="603.4" class="f8">─</text><text x="877.2" y="603.4" class="f8">─</text><text x="885.6" y="603.4" class="f8">─</text><text x="894" y="603.4" class="f8">─</text><text x="902.4" y="603.4" class="f8">─</text><text x="910.8" y="603.4" class="f8">─</text><text x="919.2" y="603.4" class="f8">─</text><text x="927.6" y="603.4" class="f8">─</text><text x="936" y="603.4" class="f8">─</text><text x="944.4" y="603.4" class="f8">─</text><text x="952.8" y="603.4" class="f8">─</text><text x="961.2" y="603.4" class="f8">─</text><text x="969.6" y="603.4" class="f8">─</text><text x="978" y="603.4" class="f8">─</text><text x="986.4" y="603.4" class="f8">─</text><text x="994.8" y="603.4" class="f8">─</text><text x="1003.2" y="603.4" class="f8">─</text><text x="1011.6" y="603.4" class="f8">─</text><text x="1020" y="603.4" class="f8">─</text><text x="1028.4" y="603.4" class="f8">─</text><text x="1036.8" y="603.4" class="f8">─</text><text x="1045.2" y="603.4" class="f8">─</text><text x="1053.6" y="603.4" class="f8">─</text><text x="1062" y="603.4" class="f8">─</text><text x="1070.4" y="603.4" class="f8">─</text><text x="1078.8" y="603.4" class="f8">─</text><text x="1087.2" y="603.4" class="f8">─</text><text x="1095.6" y="603.4" class="f8">─</text><text x="1104" y="603.4" class="f8">─</text><text x="1112.4" y="603.4" class="f8">─</text><text x="1120.8" y="603.4" class="f8">─</text><text x="1129.2" y="603.4" class="f8">─</text><text x="1137.6" y="603.4" class="f8">─</text><text x="1154.4" y="603.4">1</text><text x="1171.2" y="603.4" textLength="25.2">hit</text><text x="1204.8" y="603.4">·</text><text x="1221.6" y="603.4" textLength="25.2">n/N</text><text x="1255.2" y="603.4" class="f8">─</text><text x="1263.6" y="603.4" class="f8">╯</text><text x="12" y="620.4" textLength="25.2" fill="#87afd7">j/k</text><text x="45.6" y="620.4" textLength="58.8">message</text><text x="121.2" y="620.4" fill="#87afd7">/</text><text x="138" y="620.4" textLength="50.4">search</text><text x="205.2" y="620.4" textLength="25.2" fill="#87afd7">n/N</text><text x="238.8" y="620.4" textLength="75.6">next/prev</text><text x="322.8" y="620.4" textLength="25.2">hit</text><text x="364.8" y="620.4" fill="#87afd7">o</text><text x="381.6" y="620.4" textLength="33.6">tool</text><text x="423.6" y="620.4" textLength="50.4">output</text><text x="490.8" y="620.4" fill="#87afd7">x</text><text x="507.6" y="620.4" textLength="42">clear</text><text x="558" y="620.4" textLength="50.4">search</text><text x="625.2" y="620.4" textLength="58.8" fill="#87afd7">space/b</text><text x="692.4" y="620.4" textLength="33.6">page</text><text x="742.8" y="620.4" textLength="25.2" fill="#87afd7">J/K</text><text x="776.4" y="620.4" textLength="50.4">prompt</text><text x="843.6" y="620.4" textLength="75.6" fill="#87afd7">enter/tab</text><text x="927.6" y="620.4" textLength="33.6">read</text><text x="978" y="620.4" fill="#87afd7">y</text><text x="994.8" y="620.4" textLength="33.6">copy</text><text x="1045.2" y="620.4" fill="#87afd7">v</text><text x="1062" y="620.4" textLength="33.6">list</text><text x="1104" y="620.4" textLength="42">level</text><text x="1162.8" y="620.4" fill="#87afd7">V</text><text x="1179.6" y="620.4" textLength="33.6">view</text><text x="1221.6" y="620.4" textLength="42">optio</text><text x="1263.6" y="620.4">…</text></svg>