<svg xmlns="http://www.w3.org/2000/svg" width="780" height="500" viewBox="0 0 780 500" xml:space="preserve"><style>:root{--bg:#0d1117;--fg:#e6edf3;--cur:#e6edf3;--c0:#484f58;--c1:#ff7b72;--c2:#3fb950;--c3:#d29922;--c4:#58a6ff;--c5:#bc8cff;--c6:#39c5cf;--c7:#b1bac4;--c8:#6e7681;--c9:#ffa198;--c10:#56d364;--c11:#e3b341;--c12:#79c0ff;--c13:#d2a8ff;--c14:#56d4dd;--c15:#f0f6fc;}text{font-family:"Cascadia Code","JetBrains Mono","Fira Code","SF Mono",Menlo,Consolas,"DejaVu Sans Mono",monospace;font-size:14px;white-space:pre;fill:var(--fg)}.cur{fill:var(--cur);opacity:.65}.b{font-weight:700}.i{font-style:italic}.u{text-decoration:underline}.d{opacity:.6}</style><rect width="780" height="500" fill="var(--bg)"/><rect class="cur" x="28.8" y="454" width="8.4" height="17"/><text x="12" y="25.4">$</text><text x="28.8" y="25.4" textLength="84">share-main</text><text x="121.2" y="25.4" textLength="168">deploy-session.jsonl</text><text x="12" y="42.4" textLength="67.2">[deploy]</text><text x="87.6" y="42.4" textLength="67.2">12:01:44</text><text x="163.2" y="42.4" textLength="50.4">vercel</text><text x="222" y="42.4" textLength="33.6">auth</text><text x="264" y="42.4" textLength="25.2">ok:</text><text x="297.6" y="42.4" textLength="50.4">vcp_1j</text><text x="348" y="42.4">…</text><text x="12" y="59.4" textLength="67.2">[deploy]</text><text x="87.6" y="59.4" textLength="67.2">12:01:45</text><text x="163.2" y="59.4" textLength="25.2">llm</text><text x="196.8" y="59.4" textLength="67.2">fallback</text><text x="272.4" y="59.4" textLength="25.2">via</text><text x="306" y="59.4" textLength="50.4">sk-or-</text><text x="356.4" y="59.4">…</text><text x="12" y="76.4" textLength="67.2">[deploy]</text><text x="87.6" y="76.4" textLength="67.2">12:01:45</text><text x="163.2" y="76.4" textLength="67.2">geocoder</text><text x="238.8" y="76.4" textLength="100.8">https://maps</text><text x="339.6" y="76.4">…</text><text x="348" y="76.4" textLength="58.8">?key=AI</text><text x="406.8" y="76.4">…</text><text x="12" y="93.4" textLength="67.2">[deploy]</text><text x="87.6" y="93.4" textLength="67.2">12:01:46</text><text x="163.2" y="93.4" textLength="50.4">runner</text><text x="222" y="93.4" textLength="84">registered</text><text x="314.4" y="93.4" textLength="50.4">glrt-I</text><text x="364.8" y="93.4">…</text><text x="12" y="110.4" textLength="67.2">[deploy]</text><text x="87.6" y="110.4" textLength="67.2">12:01:47</text><text x="163.2" y="110.4" textLength="42">slack</text><text x="213.6" y="110.4" textLength="50.4">socket</text><text x="272.4" y="110.4" textLength="33.6">mode</text><text x="314.4" y="110.4" textLength="50.4">xapp-1</text><text x="364.8" y="110.4">…</text><text x="12" y="127.4">+</text><text x="28.8" y="127.4" textLength="33.6">curl</text><text x="70.8" y="127.4" textLength="16.8">-s</text><text x="96" y="127.4" textLength="16.8">-H</text><text x="121.2" y="127.4" textLength="126">"Authorization:</text><text x="255.6" y="127.4" textLength="50.4">Bearer</text><text x="314.4" y="127.4" textLength="50.4">PEnhGf</text><text x="364.8" y="127.4">…</text><text x="373.2" y="127.4">"</text><text x="390" y="127.4" textLength="100.8">https://bill</text><text x="490.8" y="127.4">…</text><text x="12" y="144.4">+</text><text x="28.8" y="144.4" textLength="33.6">curl</text><text x="70.8" y="144.4" textLength="16.8">-s</text><text x="96" y="144.4" textLength="16.8">-u</text><text x="121.2" y="144.4" textLength="268.8">deploy-bot:[REDACTED:geocodio-2]</text><text x="398.4" y="144.4" textLength="100.8">https://regi</text><text x="499.2" y="144.4">…</text><text x="12" y="161.4" textLength="50.4">[prod]</text><text x="12" y="178.4" textLength="16.8">id</text><text x="45.6" y="178.4" textLength="218.4">[REDACTED:aws-access_keys]</text><text x="12" y="195.4" textLength="100.8">key_material</text><text x="129.6" y="195.4" textLength="50.4">9H6mRd</text><text x="180" y="195.4">…</text><text x="12" y="212.4" textLength="67.2">[deploy]</text><text x="87.6" y="212.4" textLength="67.2">12:01:52</text><text x="163.2" y="212.4" textLength="33.6">done</text><text x="205.2" y="212.4" textLength="16.8">in</text><text x="230.4" y="212.4" textLength="33.6">8.1s</text><text x="12" y="229.4">$</text><text x="28.8" y="229.4" textLength="42">echo;</text><text x="79.2" y="229.4" textLength="33.6">echo</text><text x="121.2" y="229.4" textLength="16.8">'$</text><text x="146.4" y="229.4">#</text><text x="163.2" y="229.4" textLength="33.6">same</text><text x="205.2" y="229.4" textLength="92.4">transcript,</text><text x="306" y="229.4" textLength="33.6">this</text><text x="348" y="229.4" textLength="67.2">branch';</text><text x="423.6" y="229.4" textLength="100.8">share-branch</text><text x="532.8" y="229.4" textLength="168">deploy-session.jsonl</text><text x="12" y="263.4">$</text><text x="28.8" y="263.4">#</text><text x="45.6" y="263.4" textLength="33.6">same</text><text x="87.6" y="263.4" textLength="92.4">transcript,</text><text x="188.4" y="263.4" textLength="33.6">this</text><text x="230.4" y="263.4" textLength="50.4">branch</text><text x="12" y="280.4" textLength="67.2">[deploy]</text><text x="87.6" y="280.4" textLength="67.2">12:01:44</text><text x="163.2" y="280.4" textLength="50.4">vercel</text><text x="222" y="280.4" textLength="33.6">auth</text><text x="264" y="280.4" textLength="25.2">ok:</text><text x="297.6" y="280.4" textLength="193.2">[REDACTED:vercel-token]</text><text x="12" y="297.4" textLength="67.2">[deploy]</text><text x="87.6" y="297.4" textLength="67.2">12:01:45</text><text x="163.2" y="297.4" textLength="25.2">llm</text><text x="196.8" y="297.4" textLength="67.2">fallback</text><text x="272.4" y="297.4" textLength="25.2">via</text><text x="306" y="297.4" textLength="210">[REDACTED:openrouter-key]</text><text x="12" y="314.4" textLength="67.2">[deploy]</text><text x="87.6" y="314.4" textLength="67.2">12:01:45</text><text x="163.2" y="314.4" textLength="67.2">geocoder</text><text x="238.8" y="314.4" textLength="100.8">https://maps</text><text x="339.6" y="314.4">…</text><text x="348" y="314.4" textLength="252">?key=[REDACTED:google-api-key]</text><text x="12" y="331.4" textLength="67.2">[deploy]</text><text x="87.6" y="331.4" textLength="67.2">12:01:46</text><text x="163.2" y="331.4" textLength="50.4">runner</text><text x="222" y="331.4" textLength="84">registered</text><text x="314.4" y="331.4" textLength="193.2">[REDACTED:gitlab-token]</text><text x="12" y="348.4" textLength="67.2">[deploy]</text><text x="87.6" y="348.4" textLength="67.2">12:01:47</text><text x="163.2" y="348.4" textLength="42">slack</text><text x="213.6" y="348.4" textLength="50.4">socket</text><text x="272.4" y="348.4" textLength="33.6">mode</text><text x="314.4" y="348.4" textLength="218.4">[REDACTED:slack-app-token]</text><text x="12" y="365.4">+</text><text x="28.8" y="365.4" textLength="33.6">curl</text><text x="70.8" y="365.4" textLength="16.8">-s</text><text x="96" y="365.4" textLength="16.8">-H</text><text x="121.2" y="365.4" textLength="126">"Authorization:</text><text x="255.6" y="365.4" textLength="50.4">Bearer</text><text x="314.4" y="365.4" textLength="193.2">[REDACTED:auth-header]"</text><text x="516" y="365.4" textLength="100.8">https://bill</text><text x="616.8" y="365.4">…</text><text x="12" y="382.4">+</text><text x="28.8" y="382.4" textLength="33.6">curl</text><text x="70.8" y="382.4" textLength="16.8">-s</text><text x="96" y="382.4" textLength="16.8">-u</text><text x="121.2" y="382.4" textLength="336">deploy-bot:[REDACTED:curl-user-password]</text><text x="465.6" y="382.4" textLength="100.8">https://regi</text><text x="566.4" y="382.4">…</text><text x="12" y="399.4" textLength="50.4">[prod]</text><text x="12" y="416.4" textLength="16.8">id</text><text x="45.6" y="416.4" textLength="218.4">[REDACTED:aws-access_keys]</text><text x="12" y="433.4" textLength="100.8">key_material</text><text x="129.6" y="433.4" textLength="210">[REDACTED:aws-secret-key]</text><text x="12" y="450.4" textLength="67.2">[deploy]</text><text x="87.6" y="450.4" textLength="67.2">12:01:52</text><text x="163.2" y="450.4" textLength="33.6">done</text><text x="205.2" y="450.4" textLength="16.8">in</text><text x="230.4" y="450.4" textLength="33.6">8.1s</text><text x="12" y="467.4">$</text></svg>