<svg xmlns="http://www.w3.org/2000/svg" width="897.6" height="296" viewBox="0 0 897.6 296" xml:space="preserve"><style>:root{--bg:#0d1117;--fg:#e6edf3;--cur:#e6edf3;--c0:#484f58;--c1:#ff7b72;--c2:#3fb950;--c3:#d29922;--c4:#58a6ff;--c5:#bc8cff;--c6:#39c5cf;--c7:#b1bac4;--c8:#6e7681;--c9:#ffa198;--c10:#56d364;--c11:#e3b341;--c12:#79c0ff;--c13:#d2a8ff;--c14:#56d4dd;--c15:#f0f6fc;}text{font-family:"Cascadia Code","JetBrains Mono","Fira Code","SF Mono",Menlo,Consolas,"DejaVu Sans Mono",monospace;font-size:14px;white-space:pre;fill:var(--fg)}.cur{fill:var(--cur);opacity:.65}.b{font-weight:700}.i{font-style:italic}.u{text-decoration:underline}.d{opacity:.6}</style><rect width="897.6" height="296" fill="var(--bg)"/><rect class="cur" x="28.8" y="250" width="8.4" height="17"/><text x="12" y="25.4">$</text><text x="28.8" y="25.4" textLength="75.6">overshare</text><text x="112.8" y="25.4" textLength="50.4">export</text><text x="171.6" y="25.4" textLength="109.2">rewound.jsonl</text><text x="289.2" y="25.4" textLength="50.4">--mode</text><text x="348" y="25.4" textLength="42">brief</text><text x="398.4" y="25.4" textLength="16.8">-q</text><text x="423.6" y="25.4" textLength="16.8">-o</text><text x="448.8" y="25.4" textLength="84">share.json</text><text x="541.2" y="25.4" textLength="16.8">&amp;&amp;</text><text x="566.4" y="25.4" textLength="16.8">jq</text><text x="591.6" y="25.4" textLength="16.8">-r</text><text x="616.8" y="25.4" textLength="168">'.turns[].user.text'</text><text x="793.2" y="25.4" textLength="84">share.json</text><text x="12" y="59.4" textLength="42">Wrote</text><text x="62.4" y="59.4" textLength="84">share.json</text><text x="154.8" y="59.4" textLength="33.6">(5.3</text><text x="196.8" y="59.4" textLength="25.2">KB)</text><text x="12" y="76.4" textLength="25.2">add</text><text x="45.6" y="76.4">a</text><text x="62.4" y="76.4" textLength="75.6">--verbose</text><text x="146.4" y="76.4" textLength="33.6">flag</text><text x="12" y="93.4" textLength="25.2">try</text><text x="45.6" y="93.4" textLength="75.6">rewriting</text><text x="129.6" y="93.4" textLength="25.2">the</text><text x="163.2" y="93.4" textLength="50.4">parser</text><text x="222" y="93.4" textLength="16.8">in</text><text x="247.2" y="93.4" textLength="33.6">rust</text><text x="12" y="110.4" textLength="25.2">now</text><text x="45.6" y="110.4" textLength="33.6">port</text><text x="87.6" y="110.4" textLength="25.2">the</text><text x="121.2" y="110.4" textLength="42">tests</text><text x="12" y="127.4" textLength="75.6">benchmark</text><text x="96" y="127.4" textLength="16.8">it</text><text x="12" y="144.4" textLength="33.6">hmm,</text><text x="54" y="144.4" textLength="33.6">it's</text><text x="96" y="144.4" textLength="58.8">slower;</text><text x="163.2" y="144.4" textLength="58.8">profile</text><text x="230.4" y="144.4" textLength="16.8">it</text><text x="12" y="161.4" textLength="75.6">actually,</text><text x="96" y="161.4" textLength="33.6">just</text><text x="138" y="161.4" textLength="67.2">document</text><text x="213.6" y="161.4" textLength="25.2">the</text><text x="247.2" y="161.4" textLength="33.6">flag</text><text x="12" y="178.4">$</text><text x="28.8" y="178.4" textLength="75.6">overshare</text><text x="112.8" y="178.4" textLength="50.4">report</text><text x="171.6" y="178.4" textLength="109.2">rewound.jsonl</text><text x="289.2" y="178.4" textLength="50.4">--mode</text><text x="348" y="178.4" textLength="42">brief</text><text x="398.4" y="178.4">|</text><text x="415.2" y="178.4" textLength="33.6">head</text><text x="457.2" y="178.4" textLength="16.8">-4</text><text x="12" y="195.4" textLength="75.6">overshare</text><text x="96" y="195.4" textLength="50.4">report</text><text x="154.8" y="195.4">·</text><text x="171.6" y="195.4" textLength="92.4">claude-code</text><text x="272.4" y="195.4">·</text><text x="289.2" y="195.4" textLength="67.2">aaaaaaaa</text><text x="364.8" y="195.4">·</text><text x="381.6" y="195.4" textLength="84">mode=brief</text><text x="28.8" y="212.4" textLength="33.6">"add</text><text x="70.8" y="212.4">a</text><text x="87.6" y="212.4" textLength="75.6">--verbose</text><text x="171.6" y="212.4" textLength="42">flag"</text><text x="28.8" y="229.4">6</text><text x="45.6" y="229.4" textLength="42">turns</text><text x="96" y="229.4">·</text><text x="112.8" y="229.4">4</text><text x="129.6" y="229.4" textLength="33.6">tool</text><text x="171.6" y="229.4" textLength="42">calls</text><text x="222" y="229.4">·</text><text x="238.8" y="229.4">0</text><text x="255.6" y="229.4" textLength="75.6">subagents</text><text x="339.6" y="229.4">·</text><text x="356.4" y="229.4" textLength="16.8">10</text><text x="381.6" y="229.4" textLength="42">model</text><text x="432" y="229.4" textLength="42">calls</text><text x="482.4" y="229.4">·</text><text x="499.2" y="229.4" textLength="42">19.9k</text><text x="549.6" y="229.4" textLength="50.4">tokens</text><text x="608.4" y="229.4" textLength="75.6">processed</text><text x="692.4" y="229.4">·</text><text x="709.2" y="229.4" textLength="25.2">5.3</text><text x="742.8" y="229.4" textLength="16.8">KB</text><text x="768" y="229.4" textLength="58.8">payload</text><text x="12" y="263.4">$</text></svg>