<svg xmlns="http://www.w3.org/2000/svg" width="864" height="262" viewBox="0 0 864 262" xml:space="preserve"><style>:root{--bg:#0d1117;--fg:#e6edf3;--cur:#e6edf3;--c0:#484f58;--c1:#ff7b72;--c2:#3fb950;--c3:#d29922;--c4:#58a6ff;--c5:#bc8cff;--c6:#39c5cf;--c7:#b1bac4;--c8:#6e7681;--c9:#ffa198;--c10:#56d364;--c11:#e3b341;--c12:#79c0ff;--c13:#d2a8ff;--c14:#56d4dd;--c15:#f0f6fc;}text{font-family:"Cascadia Code","JetBrains Mono","Fira Code","SF Mono",Menlo,Consolas,"DejaVu Sans Mono",monospace;font-size:14px;white-space:pre;fill:var(--fg)}.cur{fill:var(--cur);opacity:.65}.b{font-weight:700}.i{font-style:italic}.u{text-decoration:underline}.d{opacity:.6}.f1{fill:var(--c1)}.f10{fill:var(--c10)}.f14{fill:var(--c14)}.f2{fill:var(--c2)}.f3{fill:var(--c3)}.f4{fill:var(--c4)}.f8{fill:var(--c8)}</style><rect width="864" height="262" fill="var(--bg)"/><rect class="cur" x="28.8" y="233" width="8.4" height="17"/><text x="20.4" y="25.4" class="f2">✓</text><text x="37.2" y="25.4" textLength="235.2">tests/secret-leaks.vitest.ts</text><text x="280.8" y="25.4" textLength="25.2">(27</text><text x="314.4" y="25.4" textLength="50.4">tests)</text><text x="373.2" y="25.4" textLength="42" class="f3">545ms</text><text x="54" y="42.4" class="f3">✓</text><text x="70.8" y="42.4" textLength="58.8">report,</text><text x="138" y="42.4" textLength="58.8">blocked</text><text x="205.2" y="42.4" textLength="58.8">report,</text><text x="272.4" y="42.4" textLength="50.4">failed</text><text x="331.2" y="42.4" textLength="58.8">publish</text><text x="398.4" y="42.4" textLength="25.2">and</text><text x="432" y="42.4" textLength="75.6">malformed</text><text x="516" y="42.4" textLength="84">transcript</text><text x="616.8" y="42.4" textLength="42" class="f3">479ms</text><text x="20.4" y="76.4" textLength="33.6">Test</text><text x="62.4" y="76.4" textLength="42">Files</text><text x="121.2" y="76.4" class="f10 b">1</text><text x="138" y="76.4" textLength="50.4" class="f10 b">passed</text><text x="196.8" y="76.4" textLength="25.2" class="f8">(1)</text><text x="62.4" y="93.4" textLength="42">Tests</text><text x="121.2" y="93.4" textLength="16.8" class="f10 b">27</text><text x="146.4" y="93.4" textLength="50.4" class="f10 b">passed</text><text x="205.2" y="93.4" textLength="33.6" class="f8">(27)</text><text x="37.2" y="110.4" textLength="42">Start</text><text x="87.6" y="110.4" textLength="16.8">at</text><text x="121.2" y="110.4" textLength="67.2">15:45:56</text><text x="37.2" y="127.4" textLength="67.2">Duration</text><text x="121.2" y="127.4" textLength="42">798ms</text><text x="171.6" y="127.4" textLength="84">(transform</text><text x="264" y="127.4" textLength="50.4">126ms,</text><text x="322.8" y="127.4" textLength="42">setup</text><text x="373.2" y="127.4" textLength="33.6">0ms,</text><text x="415.2" y="127.4" textLength="50.4">import</text><text x="474" y="127.4" textLength="50.4">173ms,</text><text x="532.8" y="127.4" textLength="42">tests</text><text x="583.2" y="127.4" textLength="50.4">545ms,</text><text x="642" y="127.4" textLength="92.4">environment</text><text x="742.8" y="127.4" textLength="33.6">0ms)</text><text x="12" y="161.4" textLength="25.2" class="b">npm</text><text x="45.6" y="161.4" textLength="50.4" class="f14">notice</text><text x="12" y="178.4" textLength="25.2" class="b">npm</text><text x="45.6" y="178.4" textLength="50.4" class="f14">notice</text><text x="104.4" y="178.4" textLength="25.2">New</text><text x="138" y="178.4" textLength="42" class="f1">major</text><text x="188.4" y="178.4" textLength="58.8">version</text><text x="255.6" y="178.4" textLength="16.8">of</text><text x="280.8" y="178.4" textLength="25.2">npm</text><text x="314.4" y="178.4" textLength="84">available!</text><text x="406.8" y="178.4" textLength="58.8" class="f1">11.19.0</text><text x="474" y="178.4" textLength="16.8">-&gt;</text><text x="499.2" y="178.4" textLength="50.4" class="f4">12.2.0</text><text x="12" y="195.4" textLength="25.2" class="b">npm</text><text x="45.6" y="195.4" textLength="50.4" class="f14">notice</text><text x="104.4" y="195.4" textLength="84">Changelog:</text><text x="196.8" y="195.4" textLength="394.8" class="f4">https://github.com/npm/cli/releases/tag/v12.2.0</text><text x="12" y="212.4" textLength="25.2" class="b">npm</text><text x="45.6" y="212.4" textLength="50.4" class="f14">notice</text><text x="104.4" y="212.4" textLength="16.8">To</text><text x="129.6" y="212.4" textLength="50.4">update</text><text x="188.4" y="212.4" textLength="33.6">run:</text><text x="230.4" y="212.4" textLength="210" class="u">npm install -g npm@12.2.0</text><text x="12" y="229.4" textLength="25.2" class="b">npm</text><text x="45.6" y="229.4" textLength="50.4" class="f14">notice</text><text x="12" y="246.4">$</text></svg>