<svg xmlns="http://www.w3.org/2000/svg" width="1284" height="636" viewBox="0 0 1284 636" xml:space="preserve"><style>:root{--bg:#0d1117;--fg:#e6edf3;--cur:#e6edf3;--c0:#484f58;--c1:#ff7b72;--c2:#3fb950;--c3:#d29922;--c4:#58a6ff;--c5:#bc8cff;--c6:#39c5cf;--c7:#b1bac4;--c8:#6e7681;--c9:#ffa198;--c10:#56d364;--c11:#e3b341;--c12:#79c0ff;--c13:#d2a8ff;--c14:#56d4dd;--c15:#f0f6fc;}text{font-family:"Cascadia Code","JetBrains Mono","Fira Code","SF Mono",Menlo,Consolas,"DejaVu Sans Mono",monospace;font-size:14px;white-space:pre;fill:var(--fg)}.cur{fill:var(--cur);opacity:.65}.b{font-weight:700}.i{font-style:italic}.u{text-decoration:underline}.d{opacity:.6}</style><rect width="1284" height="636" fill="var(--bg)"/><rect class="cur" x="28.8" y="607" width="8.4" height="17"/><text x="20.4" y="25.4" textLength="25.2">RUN</text><text x="62.4" y="25.4" textLength="58.8">v4.1.11</text><text x="129.6" y="25.4" textLength="50.4">&lt;repo&gt;</text><text x="20.4" y="59.4">✓</text><text x="37.2" y="59.4" textLength="243.6">tests/known-sources.vitest.ts</text><text x="289.2" y="59.4">&gt;</text><text x="306" y="59.4" textLength="92.4">known-value</text><text x="406.8" y="59.4" textLength="67.2">sources:</text><text x="482.4" y="59.4" textLength="67.2">defaults</text><text x="558" y="59.4">&gt;</text><text x="574.8" y="59.4" textLength="33.6">ship</text><text x="616.8" y="59.4" textLength="25.2">env</text><text x="650.4" y="59.4" textLength="25.2">and</text><text x="684" y="59.4" textLength="58.8">project</text><text x="751.2" y="59.4" textLength="33.6">.env</text><text x="793.2" y="59.4" textLength="25.2">on,</text><text x="826.8" y="59.4" textLength="84">everything</text><text x="919.2" y="59.4" textLength="33.6">that</text><text x="961.2" y="59.4" textLength="42">reads</text><text x="1011.6" y="59.4">a</text><text x="1028.4" y="59.4" textLength="84">credential</text><text x="1120.8" y="59.4" textLength="42">store</text><text x="1171.2" y="59.4" textLength="25.2">off</text><text x="1204.8" y="59.4" textLength="25.2">2ms</text><text x="20.4" y="76.4">✓</text><text x="37.2" y="76.4" textLength="243.6">tests/known-sources.vitest.ts</text><text x="289.2" y="76.4">&gt;</text><text x="306" y="76.4" textLength="92.4">known-value</text><text x="406.8" y="76.4" textLength="67.2">sources:</text><text x="482.4" y="76.4" textLength="67.2">defaults</text><text x="558" y="76.4">&gt;</text><text x="574.8" y="76.4" textLength="25.2">the</text><text x="608.4" y="76.4" textLength="58.8">default</text><text x="675.6" y="76.4" textLength="75.6">collector</text><text x="759.6" y="76.4" textLength="42">opens</text><text x="810" y="76.4" textLength="16.8">no</text><text x="835.2" y="76.4" textLength="84">credential</text><text x="927.6" y="76.4" textLength="42">file,</text><text x="978" y="76.4" textLength="75.6">~/.npmrc,</text><text x="1062" y="76.4" textLength="67.2">~/.netrc</text><text x="1137.6" y="76.4" textLength="16.8">or</text><text x="1162.8" y="76.4" textLength="75.6">hosts.yml</text><text x="1246.8" y="76.4" textLength="25.2">and</text><text x="20.4" y="93.4" textLength="42">never</text><text x="70.8" y="93.4" textLength="33.6">runs</text><text x="112.8" y="93.4" textLength="16.8">gh</text><text x="138" y="93.4" textLength="25.2">2ms</text><text x="20.4" y="110.4">✓</text><text x="37.2" y="110.4" textLength="243.6">tests/known-sources.vitest.ts</text><text x="289.2" y="110.4">&gt;</text><text x="306" y="110.4" textLength="92.4">known-value</text><text x="406.8" y="110.4" textLength="67.2">sources:</text><text x="482.4" y="110.4" textLength="67.2">defaults</text><text x="558" y="110.4">&gt;</text><text x="574.8" y="110.4" textLength="58.8">reports</text><text x="642" y="110.4" textLength="25.2">the</text><text x="675.6" y="110.4" textLength="58.8">sources</text><text x="742.8" y="110.4" textLength="33.6">that</text><text x="784.8" y="110.4" textLength="33.6">were</text><text x="826.8" y="110.4" textLength="25.2">not</text><text x="860.4" y="110.4" textLength="33.6">read</text><text x="902.4" y="110.4" textLength="16.8">as</text><text x="927.6" y="110.4" textLength="67.2">disabled</text><text x="1003.2" y="110.4" textLength="25.2">1ms</text><text x="20.4" y="127.4">✓</text><text x="37.2" y="127.4" textLength="243.6">tests/known-sources.vitest.ts</text><text x="289.2" y="127.4">&gt;</text><text x="306" y="127.4" textLength="92.4">known-value</text><text x="406.8" y="127.4" textLength="67.2">sources:</text><text x="482.4" y="127.4" textLength="50.4">opting</text><text x="541.2" y="127.4" textLength="16.8">in</text><text x="566.4" y="127.4">&gt;</text><text x="583.2" y="127.4" textLength="25.2">env</text><text x="616.8" y="127.4" textLength="33.6">off:</text><text x="658.8" y="127.4" textLength="92.4">environment</text><text x="759.6" y="127.4" textLength="75.6">variables</text><text x="843.6" y="127.4" textLength="25.2">are</text><text x="877.2" y="127.4" textLength="25.2">not</text><text x="910.8" y="127.4" textLength="33.6">read</text><text x="952.8" y="127.4" textLength="25.2">1ms</text><text x="20.4" y="144.4">✓</text><text x="37.2" y="144.4" textLength="243.6">tests/known-sources.vitest.ts</text><text x="289.2" y="144.4">&gt;</text><text x="306" y="144.4" textLength="92.4">known-value</text><text x="406.8" y="144.4" textLength="67.2">sources:</text><text x="482.4" y="144.4" textLength="50.4">opting</text><text x="541.2" y="144.4" textLength="16.8">in</text><text x="566.4" y="144.4">&gt;</text><text x="583.2" y="144.4" textLength="84">projectEnv</text><text x="675.6" y="144.4" textLength="33.6">off:</text><text x="717.6" y="144.4" textLength="25.2">the</text><text x="751.2" y="144.4" textLength="58.8">project</text><text x="818.4" y="144.4" textLength="75.6">directory</text><text x="902.4" y="144.4" textLength="16.8">is</text><text x="927.6" y="144.4" textLength="25.2">not</text><text x="961.2" y="144.4" textLength="33.6">even</text><text x="1003.2" y="144.4" textLength="50.4">listed</text><text x="1062" y="144.4" textLength="25.2">1ms</text><text x="20.4" y="161.4">✓</text><text x="37.2" y="161.4" textLength="243.6">tests/known-sources.vitest.ts</text><text x="289.2" y="161.4">&gt;</text><text x="306" y="161.4" textLength="92.4">known-value</text><text x="406.8" y="161.4" textLength="67.2">sources:</text><text x="482.4" y="161.4" textLength="50.4">opting</text><text x="541.2" y="161.4" textLength="16.8">in</text><text x="566.4" y="161.4">&gt;</text><text x="583.2" y="161.4" textLength="126">credentialFiles</text><text x="717.6" y="161.4" textLength="25.2">on:</text><text x="751.2" y="161.4" textLength="58.8">exactly</text><text x="818.4" y="161.4" textLength="25.2">the</text><text x="852" y="161.4" textLength="126">pi/Claude/Codex</text><text x="986.4" y="161.4" textLength="42">JSON,</text><text x="1036.8" y="161.4" textLength="84">hosts.yml,</text><text x="1129.2" y="161.4" textLength="50.4">.npmrc</text><text x="1188" y="161.4" textLength="25.2">and</text><text x="1221.6" y="161.4" textLength="50.4">.netrc</text><text x="20.4" y="178.4" textLength="92.4">contribute,</text><text x="121.2" y="178.4" textLength="25.2">and</text><text x="154.8" y="178.4" textLength="16.8">gh</text><text x="180" y="178.4" textLength="16.8">is</text><text x="205.2" y="178.4" textLength="25.2">not</text><text x="238.8" y="178.4" textLength="25.2">run</text><text x="272.4" y="178.4" textLength="25.2">1ms</text><text x="20.4" y="195.4">✓</text><text x="37.2" y="195.4" textLength="243.6">tests/known-sources.vitest.ts</text><text x="289.2" y="195.4">&gt;</text><text x="306" y="195.4" textLength="92.4">known-value</text><text x="406.8" y="195.4" textLength="67.2">sources:</text><text x="482.4" y="195.4" textLength="50.4">opting</text><text x="541.2" y="195.4" textLength="16.8">in</text><text x="566.4" y="195.4">&gt;</text><text x="583.2" y="195.4" textLength="58.8">ghToken</text><text x="650.4" y="195.4" textLength="25.2">on:</text><text x="684" y="195.4" textLength="33.6">runs</text><text x="726" y="195.4" textLength="58.8">exactly</text><text x="793.2" y="195.4" textLength="25.2">`gh</text><text x="826.8" y="195.4" textLength="33.6">auth</text><text x="868.8" y="195.4" textLength="50.4">token`</text><text x="927.6" y="195.4" textLength="33.6">once</text><text x="969.6" y="195.4" textLength="25.2">and</text><text x="1003.2" y="195.4" textLength="42">reads</text><text x="1053.6" y="195.4" textLength="16.8">no</text><text x="1078.8" y="195.4" textLength="84">credential</text><text x="1171.2" y="195.4" textLength="33.6">file</text><text x="1213.2" y="195.4" textLength="25.2">1ms</text><text x="20.4" y="212.4">✓</text><text x="37.2" y="212.4" textLength="243.6">tests/known-sources.vitest.ts</text><text x="289.2" y="212.4">&gt;</text><text x="306" y="212.4" textLength="159.6">redact.knownSources</text><text x="474" y="212.4" textLength="50.4">config</text><text x="532.8" y="212.4">&gt;</text><text x="549.6" y="212.4" textLength="67.2">defaults</text><text x="625.2" y="212.4" textLength="33.6">when</text><text x="667.2" y="212.4" textLength="50.4">unset,</text><text x="726" y="212.4" textLength="25.2">and</text><text x="759.6" y="212.4">a</text><text x="776.4" y="212.4" textLength="58.8">partial</text><text x="843.6" y="212.4" textLength="58.8">setting</text><text x="910.8" y="212.4" textLength="33.6">only</text><text x="952.8" y="212.4" textLength="58.8">changes</text><text x="1020" y="212.4" textLength="25.2">the</text><text x="1053.6" y="212.4" textLength="42">named</text><text x="1104" y="212.4" textLength="58.8">sources</text><text x="1171.2" y="212.4" textLength="25.2">1ms</text><text x="20.4" y="229.4">✓</text><text x="37.2" y="229.4" textLength="243.6">tests/known-sources.vitest.ts</text><text x="289.2" y="229.4">&gt;</text><text x="306" y="229.4" textLength="159.6">redact.knownSources</text><text x="474" y="229.4" textLength="50.4">config</text><text x="532.8" y="229.4">&gt;</text><text x="549.6" y="229.4" textLength="58.8">rejects</text><text x="616.8" y="229.4" textLength="42">typos</text><text x="667.2" y="229.4" textLength="25.2">and</text><text x="700.8" y="229.4" textLength="100.8">non-booleans</text><text x="810" y="229.4" textLength="58.8">instead</text><text x="877.2" y="229.4" textLength="16.8">of</text><text x="902.4" y="229.4" textLength="67.2">silently</text><text x="978" y="229.4" textLength="67.2">ignoring</text><text x="1053.6" y="229.4">a</text><text x="1070.4" y="229.4" textLength="67.2">security</text><text x="1146" y="229.4" textLength="58.8">setting</text><text x="1213.2" y="229.4" textLength="25.2">1ms</text><text x="20.4" y="246.4">✓</text><text x="37.2" y="246.4" textLength="319.2">tests/known-sources-pipeline.vitest.ts</text><text x="364.8" y="246.4">&gt;</text><text x="381.6" y="246.4" textLength="84">harvesting</text><text x="474" y="246.4" textLength="58.8">through</text><text x="541.2" y="246.4" textLength="25.2">the</text><text x="574.8" y="246.4" textLength="33.6">real</text><text x="616.8" y="246.4" textLength="67.2">pipeline</text><text x="692.4" y="246.4">&gt;</text><text x="709.2" y="246.4" textLength="16.8">by</text><text x="734.4" y="246.4" textLength="58.8">default</text><text x="801.6" y="246.4" textLength="58.8">redacts</text><text x="868.8" y="246.4" textLength="25.2">the</text><text x="902.4" y="246.4" textLength="58.8">planted</text><text x="969.6" y="246.4" textLength="25.2">env</text><text x="1003.2" y="246.4" textLength="25.2">var</text><text x="1036.8" y="246.4" textLength="25.2">and</text><text x="1070.4" y="246.4" textLength="33.6">.env</text><text x="1112.4" y="246.4" textLength="50.4">value,</text><text x="1171.2" y="246.4" textLength="25.2">and</text><text x="1204.8" y="246.4" textLength="42">calls</text><text x="1255.2" y="246.4" textLength="16.8">gh</text><text x="20.4" y="263.4" textLength="25.2">for</text><text x="54" y="263.4" textLength="58.8">nothing</text><text x="121.2" y="263.4" textLength="33.6">18ms</text><text x="20.4" y="280.4">✓</text><text x="37.2" y="280.4" textLength="319.2">tests/known-sources-pipeline.vitest.ts</text><text x="364.8" y="280.4">&gt;</text><text x="381.6" y="280.4" textLength="84">harvesting</text><text x="474" y="280.4" textLength="58.8">through</text><text x="541.2" y="280.4" textLength="25.2">the</text><text x="574.8" y="280.4" textLength="33.6">real</text><text x="616.8" y="280.4" textLength="67.2">pipeline</text><text x="692.4" y="280.4">&gt;</text><text x="709.2" y="280.4" textLength="16.8">by</text><text x="734.4" y="280.4" textLength="58.8">default</text><text x="801.6" y="280.4" textLength="25.2">the</text><text x="835.2" y="280.4" textLength="50.4">opt-in</text><text x="894" y="280.4" textLength="58.8">sources</text><text x="961.2" y="280.4" textLength="25.2">are</text><text x="994.8" y="280.4" textLength="25.2">NOT</text><text x="1028.4" y="280.4" textLength="84">harvested:</text><text x="1120.8" y="280.4" textLength="33.6">this</text><text x="1162.8" y="280.4" textLength="16.8">is</text><text x="1188" y="280.4" textLength="25.2">the</text><text x="1221.6" y="280.4" textLength="50.4">docume</text><text x="12" y="297.4" textLength="33.6">nted</text><text x="54" y="297.4" textLength="25.2">gap</text><text x="87.6" y="297.4" textLength="25.2">(no</text><text x="121.2" y="297.4" textLength="58.8">pattern</text><text x="188.4" y="297.4" textLength="58.8">matches</text><text x="255.6" y="297.4" textLength="42">these</text><text x="306" y="297.4" textLength="33.6">fake</text><text x="348" y="297.4" textLength="58.8">values)</text><text x="415.2" y="297.4" textLength="25.2">4ms</text><text x="20.4" y="314.4">✓</text><text x="37.2" y="314.4" textLength="319.2">tests/known-sources-pipeline.vitest.ts</text><text x="364.8" y="314.4">&gt;</text><text x="381.6" y="314.4" textLength="84">harvesting</text><text x="474" y="314.4" textLength="58.8">through</text><text x="541.2" y="314.4" textLength="25.2">the</text><text x="574.8" y="314.4" textLength="33.6">real</text><text x="616.8" y="314.4" textLength="67.2">pipeline</text><text x="692.4" y="314.4">&gt;</text><text x="709.2" y="314.4" textLength="126">credentialFiles</text><text x="843.6" y="314.4" textLength="25.2">on:</text><text x="877.2" y="314.4" textLength="25.2">the</text><text x="910.8" y="314.4" textLength="42">JSON,</text><text x="961.2" y="314.4" textLength="84">hosts.yml,</text><text x="1053.6" y="314.4" textLength="50.4">.npmrc</text><text x="1112.4" y="314.4" textLength="25.2">and</text><text x="1146" y="314.4" textLength="50.4">.netrc</text><text x="1204.8" y="314.4" textLength="50.4">values</text><text x="1263.6" y="314.4">a</text><text x="12" y="331.4" textLength="16.8">re</text><text x="37.2" y="331.4" textLength="75.6">redacted;</text><text x="121.2" y="331.4" textLength="25.2">the</text><text x="154.8" y="331.4" textLength="16.8">gh</text><text x="180" y="331.4" textLength="42">token</text><text x="230.4" y="331.4" textLength="42">still</text><text x="280.8" y="331.4" textLength="16.8">is</text><text x="306" y="331.4" textLength="25.2">not</text><text x="339.6" y="331.4" textLength="25.2">4ms</text><text x="20.4" y="348.4">✓</text><text x="37.2" y="348.4" textLength="319.2">tests/known-sources-pipeline.vitest.ts</text><text x="364.8" y="348.4">&gt;</text><text x="381.6" y="348.4" textLength="84">harvesting</text><text x="474" y="348.4" textLength="58.8">through</text><text x="541.2" y="348.4" textLength="25.2">the</text><text x="574.8" y="348.4" textLength="33.6">real</text><text x="616.8" y="348.4" textLength="67.2">pipeline</text><text x="692.4" y="348.4">&gt;</text><text x="709.2" y="348.4" textLength="58.8">ghToken</text><text x="776.4" y="348.4" textLength="25.2">on:</text><text x="810" y="348.4" textLength="16.8">gh</text><text x="835.2" y="348.4" textLength="16.8">is</text><text x="860.4" y="348.4" textLength="42">asked</text><text x="910.8" y="348.4" textLength="33.6">once</text><text x="952.8" y="348.4" textLength="25.2">for</text><text x="986.4" y="348.4" textLength="25.2">the</text><text x="1020" y="348.4" textLength="42">token</text><text x="1070.4" y="348.4" textLength="25.2">and</text><text x="1104" y="348.4" textLength="33.6">that</text><text x="1146" y="348.4" textLength="42">value</text><text x="1196.4" y="348.4" textLength="16.8">is</text><text x="1221.6" y="348.4" textLength="50.4">redact</text><text x="12" y="365.4" textLength="25.2">ed;</text><text x="45.6" y="365.4" textLength="84">credential</text><text x="138" y="365.4" textLength="42">files</text><text x="188.4" y="365.4" textLength="33.6">stay</text><text x="230.4" y="365.4" textLength="50.4">unread</text><text x="289.2" y="365.4" textLength="25.2">6ms</text><text x="20.4" y="382.4">✓</text><text x="37.2" y="382.4" textLength="319.2">tests/known-sources-pipeline.vitest.ts</text><text x="364.8" y="382.4">&gt;</text><text x="381.6" y="382.4" textLength="84">harvesting</text><text x="474" y="382.4" textLength="58.8">through</text><text x="541.2" y="382.4" textLength="25.2">the</text><text x="574.8" y="382.4" textLength="33.6">real</text><text x="616.8" y="382.4" textLength="67.2">pipeline</text><text x="692.4" y="382.4">&gt;</text><text x="709.2" y="382.4" textLength="25.2">env</text><text x="742.8" y="382.4" textLength="25.2">and</text><text x="776.4" y="382.4" textLength="84">projectEnv</text><text x="868.8" y="382.4" textLength="25.2">can</text><text x="902.4" y="382.4" textLength="16.8">be</text><text x="927.6" y="382.4" textLength="67.2">switched</text><text x="1003.2" y="382.4" textLength="25.2">off</text><text x="1036.8" y="382.4" textLength="25.2">too</text><text x="1070.4" y="382.4" textLength="25.2">4ms</text><text x="20.4" y="399.4">✓</text><text x="37.2" y="399.4" textLength="319.2">tests/known-sources-pipeline.vitest.ts</text><text x="364.8" y="399.4">&gt;</text><text x="381.6" y="399.4" textLength="84">harvesting</text><text x="474" y="399.4" textLength="58.8">through</text><text x="541.2" y="399.4" textLength="25.2">the</text><text x="574.8" y="399.4" textLength="33.6">real</text><text x="616.8" y="399.4" textLength="67.2">pipeline</text><text x="692.4" y="399.4">&gt;</text><text x="709.2" y="399.4" textLength="84">everything</text><text x="801.6" y="399.4" textLength="16.8">on</text><text x="826.8" y="399.4" textLength="58.8">redacts</text><text x="894" y="399.4" textLength="42">every</text><text x="944.4" y="399.4" textLength="58.8">planted</text><text x="1011.6" y="399.4" textLength="42">value</text><text x="1062" y="399.4" textLength="25.2">7ms</text><text x="20.4" y="416.4">✓</text><text x="37.2" y="416.4" textLength="319.2">tests/known-sources-pipeline.vitest.ts</text><text x="364.8" y="416.4">&gt;</text><text x="381.6" y="416.4" textLength="84">harvesting</text><text x="474" y="416.4" textLength="58.8">through</text><text x="541.2" y="416.4" textLength="25.2">the</text><text x="574.8" y="416.4" textLength="33.6">real</text><text x="616.8" y="416.4" textLength="67.2">pipeline</text><text x="692.4" y="416.4">&gt;</text><text x="709.2" y="416.4" textLength="25.2">the</text><text x="742.8" y="416.4" textLength="42">human</text><text x="793.2" y="416.4" textLength="58.8">report,</text><text x="860.4" y="416.4" textLength="50.4">--json</text><text x="919.2" y="416.4" textLength="50.4">report</text><text x="978" y="416.4" textLength="25.2">and</text><text x="1011.6" y="416.4" textLength="50.4">browse</text><text x="1070.4" y="416.4" textLength="50.4">review</text><text x="1129.2" y="416.4" textLength="33.6">list</text><text x="1171.2" y="416.4" textLength="75.6">consulted</text><text x="1255.2" y="416.4" textLength="16.8">an</text><text x="12" y="433.4">d</text><text x="28.8" y="433.4" textLength="109.2">not-consulted</text><text x="146.4" y="433.4" textLength="67.2">sources,</text><text x="222" y="433.4" textLength="33.6">with</text><text x="264" y="433.4" textLength="50.4">counts</text><text x="322.8" y="433.4" textLength="25.2">and</text><text x="356.4" y="433.4" textLength="16.8">no</text><text x="381.6" y="433.4" textLength="50.4">values</text><text x="440.4" y="433.4" textLength="25.2">4ms</text><text x="20.4" y="450.4">✓</text><text x="37.2" y="450.4" textLength="319.2">tests/known-sources-pipeline.vitest.ts</text><text x="364.8" y="450.4">&gt;</text><text x="381.6" y="450.4" textLength="84">harvesting</text><text x="474" y="450.4" textLength="58.8">through</text><text x="541.2" y="450.4" textLength="25.2">the</text><text x="574.8" y="450.4" textLength="33.6">real</text><text x="616.8" y="450.4" textLength="67.2">pipeline</text><text x="692.4" y="450.4">&gt;</text><text x="709.2" y="450.4" textLength="42">lists</text><text x="759.6" y="450.4" textLength="117.6">--secrets-file</text><text x="885.6" y="450.4" textLength="50.4">values</text><text x="944.4" y="450.4" textLength="16.8">as</text><text x="969.6" y="450.4" textLength="42">their</text><text x="1020" y="450.4" textLength="25.2">own</text><text x="1053.6" y="450.4" textLength="50.4">source</text><text x="1112.4" y="450.4" textLength="25.2">and</text><text x="1146" y="450.4" textLength="58.8">redacts</text><text x="1213.2" y="450.4" textLength="33.6">them</text><text x="1255.2" y="450.4" textLength="16.8">3m</text><text x="12" y="467.4">s</text><text x="20.4" y="484.4">✓</text><text x="37.2" y="484.4" textLength="319.2">tests/known-sources-pipeline.vitest.ts</text><text x="364.8" y="484.4">&gt;</text><text x="381.6" y="484.4" textLength="151.2">formatKnownSources</text><text x="541.2" y="484.4">&gt;</text><text x="558" y="484.4" textLength="42">names</text><text x="608.4" y="484.4" textLength="75.6">consulted</text><text x="692.4" y="484.4" textLength="58.8">sources</text><text x="759.6" y="484.4" textLength="33.6">with</text><text x="801.6" y="484.4" textLength="58.8">counts,</text><text x="868.8" y="484.4" textLength="33.6">then</text><text x="910.8" y="484.4" textLength="25.2">the</text><text x="944.4" y="484.4" textLength="58.8">sources</text><text x="1011.6" y="484.4" textLength="33.6">that</text><text x="1053.6" y="484.4" textLength="33.6">were</text><text x="1095.6" y="484.4" textLength="25.2">not</text><text x="1129.2" y="484.4" textLength="33.6">read</text><text x="1171.2" y="484.4" textLength="25.2">0ms</text><text x="20.4" y="501.4">✓</text><text x="37.2" y="501.4" textLength="319.2">tests/known-sources-pipeline.vitest.ts</text><text x="364.8" y="501.4">&gt;</text><text x="381.6" y="501.4" textLength="25.2">the</text><text x="415.2" y="501.4" textLength="25.2">CLI</text><text x="448.8" y="501.4">&gt;</text><text x="465.6" y="501.4" textLength="58.8">honours</text><text x="532.8" y="501.4" textLength="159.6">redact.knownSources</text><text x="700.8" y="501.4" textLength="33.6">from</text><text x="742.8" y="501.4" textLength="25.2">the</text><text x="776.4" y="501.4" textLength="50.4">config</text><text x="835.2" y="501.4" textLength="33.6">file</text><text x="877.2" y="501.4" textLength="25.2">and</text><text x="910.8" y="501.4" textLength="58.8">reports</text><text x="978" y="501.4" textLength="16.8">it</text><text x="1003.2" y="501.4" textLength="16.8">in</text><text x="1028.4" y="501.4" textLength="50.4">--json</text><text x="1087.2" y="501.4" textLength="42">245ms</text><text x="20.4" y="535.4" textLength="33.6">Test</text><text x="62.4" y="535.4" textLength="42">Files</text><text x="121.2" y="535.4">2</text><text x="138" y="535.4" textLength="50.4">passed</text><text x="196.8" y="535.4" textLength="25.2">(2)</text><text x="62.4" y="552.4" textLength="42">Tests</text><text x="121.2" y="552.4" textLength="16.8">19</text><text x="146.4" y="552.4" textLength="50.4">passed</text><text x="205.2" y="552.4" textLength="33.6">(19)</text><text x="37.2" y="569.4" textLength="42">Start</text><text x="87.6" y="569.4" textLength="16.8">at</text><text x="121.2" y="569.4" textLength="67.2">18:32:46</text><text x="37.2" y="586.4" textLength="67.2">Duration</text><text x="121.2" y="586.4" textLength="42">526ms</text><text x="171.6" y="586.4" textLength="84">(transform</text><text x="264" y="586.4" textLength="50.4">150ms,</text><text x="322.8" y="586.4" textLength="42">setup</text><text x="373.2" y="586.4" textLength="33.6">0ms,</text><text x="415.2" y="586.4" textLength="50.4">import</text><text x="474" y="586.4" textLength="50.4">229ms,</text><text x="532.8" y="586.4" textLength="42">tests</text><text x="583.2" y="586.4" textLength="50.4">309ms,</text><text x="642" y="586.4" textLength="92.4">environment</text><text x="742.8" y="586.4" textLength="33.6">0ms)</text><text x="12" y="620.4">$</text></svg>